<?xml version="1.0" encoding="utf-8"?>
<svg width="1349" height="512" viewBox="0 0 1349 512" fill="none" xmlns="http://www.w3.org/2000/svg">
  <rect width="1349" height="512" fill="#0D0D0D" fill-opacity="0"/>
  <defs><clipPath id="gd0"><rect x="-70" y="110.0" width="660" height="37.3"/></clipPath><clipPath id="gd1"><rect x="-70" y="146.5" width="660" height="37.3"/></clipPath><clipPath id="gd2"><rect x="-70" y="183.0" width="660" height="37.3"/></clipPath><clipPath id="gd3"><rect x="-70" y="219.5" width="660" height="37.3"/></clipPath><clipPath id="gd4"><rect x="-70" y="256.0" width="660" height="37.3"/></clipPath><clipPath id="gd5"><rect x="-70" y="292.5" width="660" height="37.3"/></clipPath><clipPath id="gd6"><rect x="-70" y="329.0" width="660" height="37.3"/></clipPath><clipPath id="gd7"><rect x="-70" y="365.5" width="660" height="37.3"/></clipPath></defs><path d="M192.00 164.00A92 92 0 0 1 235.19 337.23" stroke="#142219" stroke-width="40" fill="none" stroke-linecap="round"/><path d="M271.67 302.00A92 92 0 0 1 100.06 252.79" stroke="#142219" stroke-width="40" fill="none" stroke-linecap="round"/><path d="M112.33 302.00A92 92 0 0 1 240.75 177.98" stroke="#142219" stroke-width="40" fill="none" stroke-linecap="round"/><path d="M210.00 164.00A92 92 0 0 1 253.19 337.23" stroke="#18301f" stroke-width="40" fill="none" stroke-linecap="round"/><path d="M289.67 302.00A92 92 0 0 1 118.06 252.79" stroke="#18301f" stroke-width="40" fill="none" stroke-linecap="round"/><path d="M130.33 302.00A92 92 0 0 1 258.75 177.98" stroke="#18301f" stroke-width="40" fill="none" stroke-linecap="round"/><path d="M228.00 164.00A92 92 0 0 1 271.19 337.23" stroke="#1d3a2c" stroke-width="40" fill="none" stroke-linecap="round"/><path d="M307.67 302.00A92 92 0 0 1 136.06 252.79" stroke="#1d3a2c" stroke-width="40" fill="none" stroke-linecap="round"/><path d="M148.33 302.00A92 92 0 0 1 276.75 177.98" stroke="#1d3a2c" stroke-width="40" fill="none" stroke-linecap="round"/><path d="M242.00 164.00A92 92 0 0 1 285.19 337.23" stroke="#27543f" stroke-width="40" fill="none" stroke-linecap="round"/><path d="M321.67 302.00A92 92 0 0 1 150.06 252.79" stroke="#27543f" stroke-width="40" fill="none" stroke-linecap="round"/><path d="M162.33 302.00A92 92 0 0 1 290.75 177.98" stroke="#27543f" stroke-width="40" fill="none" stroke-linecap="round"/><g clip-path="url(#gd0)"><path d="M290.00 164.00A92 92 0 0 1 333.19 337.23" stroke="#FFFFFF" stroke-width="40" fill="none" stroke-linecap="round"/><path d="M369.67 302.00A92 92 0 0 1 198.06 252.79" stroke="#FFFFFF" stroke-width="40" fill="none" stroke-linecap="round"/><path d="M210.33 302.00A92 92 0 0 1 338.75 177.98" stroke="#3DD68C" stroke-width="40" fill="none" stroke-linecap="round"/></g><g clip-path="url(#gd1)"><path d="M228.00 164.00A92 92 0 0 1 271.19 337.23" stroke="#FFFFFF" stroke-width="40" fill="none" stroke-linecap="round"/><path d="M307.67 302.00A92 92 0 0 1 136.06 252.79" stroke="#FFFFFF" stroke-width="40" fill="none" stroke-linecap="round"/><path d="M148.33 302.00A92 92 0 0 1 276.75 177.98" stroke="#3DD68C" stroke-width="40" fill="none" stroke-linecap="round"/></g><g clip-path="url(#gd2)"><path d="M276.00 164.00A92 92 0 0 1 319.19 337.23" stroke="#FFFFFF" stroke-width="40" fill="none" stroke-linecap="round"/><path d="M355.67 302.00A92 92 0 0 1 184.06 252.79" stroke="#FFFFFF" stroke-width="40" fill="none" stroke-linecap="round"/><path d="M196.33 302.00A92 92 0 0 1 324.75 177.98" stroke="#3DD68C" stroke-width="40" fill="none" stroke-linecap="round"/></g><g clip-path="url(#gd3)"><path d="M218.00 164.00A92 92 0 0 1 261.19 337.23" stroke="#FFFFFF" stroke-width="40" fill="none" stroke-linecap="round"/><path d="M297.67 302.00A92 92 0 0 1 126.06 252.79" stroke="#FFFFFF" stroke-width="40" fill="none" stroke-linecap="round"/><path d="M138.33 302.00A92 92 0 0 1 266.75 177.98" stroke="#3DD68C" stroke-width="40" fill="none" stroke-linecap="round"/></g><g clip-path="url(#gd4)"><path d="M280.00 164.00A92 92 0 0 1 323.19 337.23" stroke="#FFFFFF" stroke-width="40" fill="none" stroke-linecap="round"/><path d="M359.67 302.00A92 92 0 0 1 188.06 252.79" stroke="#FFFFFF" stroke-width="40" fill="none" stroke-linecap="round"/><path d="M200.33 302.00A92 92 0 0 1 328.75 177.98" stroke="#3DD68C" stroke-width="40" fill="none" stroke-linecap="round"/></g><g clip-path="url(#gd5)"><path d="M242.00 164.00A92 92 0 0 1 285.19 337.23" stroke="#FFFFFF" stroke-width="40" fill="none" stroke-linecap="round"/><path d="M321.67 302.00A92 92 0 0 1 150.06 252.79" stroke="#FFFFFF" stroke-width="40" fill="none" stroke-linecap="round"/><path d="M162.33 302.00A92 92 0 0 1 290.75 177.98" stroke="#3DD68C" stroke-width="40" fill="none" stroke-linecap="round"/></g><g clip-path="url(#gd6)"><path d="M286.00 164.00A92 92 0 0 1 329.19 337.23" stroke="#FFFFFF" stroke-width="40" fill="none" stroke-linecap="round"/><path d="M365.67 302.00A92 92 0 0 1 194.06 252.79" stroke="#FFFFFF" stroke-width="40" fill="none" stroke-linecap="round"/><path d="M206.33 302.00A92 92 0 0 1 334.75 177.98" stroke="#3DD68C" stroke-width="40" fill="none" stroke-linecap="round"/></g><g clip-path="url(#gd7)"><path d="M234.00 164.00A92 92 0 0 1 277.19 337.23" stroke="#FFFFFF" stroke-width="40" fill="none" stroke-linecap="round"/><path d="M313.67 302.00A92 92 0 0 1 142.06 252.79" stroke="#FFFFFF" stroke-width="40" fill="none" stroke-linecap="round"/><path d="M154.33 302.00A92 92 0 0 1 282.75 177.98" stroke="#3DD68C" stroke-width="40" fill="none" stroke-linecap="round"/></g><g transform="translate(512 107)"><line x1="0" y1="0" x2="0" y2="298" stroke="#BDBDBD" stroke-width="1"/><g transform="translate(78.5 175) scale(0.144 -0.144)" fill="#FFFFFF"><path transform="translate(0.00 0)" d="M631 264V230H235Q235 173 260.5 144.0Q286 115 341 115Q391 115 414.5 136.0Q438 157 438 192H631Q631 96 558.0 42.0Q485 -12 345 -12Q198 -12 117.0 56.5Q36 125 36 264Q36 400 115.0 470.0Q194 540 333 540Q478 540 554.5 472.0Q631 404 631 264ZM236 324H430Q430 365 406.5 389.0Q383 413 341 413Q247 413 236 324Z"/><path transform="translate(667.00 0)" d="M631 264V230H235Q235 173 260.5 144.0Q286 115 341 115Q391 115 414.5 136.0Q438 157 438 192H631Q631 96 558.0 42.0Q485 -12 345 -12Q198 -12 117.0 56.5Q36 125 36 264Q36 400 115.0 470.0Q194 540 333 540Q478 540 554.5 472.0Q631 404 631 264ZM236 324H430Q430 365 406.5 389.0Q383 413 341 413Q247 413 236 324Z"/></g><g transform="translate(270.596 175) scale(0.144 -0.144)" fill="#3DD68C"><path transform="translate(0.00 0)" d="M631 264V230H235Q235 173 260.5 144.0Q286 115 341 115Q391 115 414.5 136.0Q438 157 438 192H631Q631 96 558.0 42.0Q485 -12 345 -12Q198 -12 117.0 56.5Q36 125 36 264Q36 400 115.0 470.0Q194 540 333 540Q478 540 554.5 472.0Q631 404 631 264ZM236 324H430Q430 365 406.5 389.0Q383 413 341 413Q247 413 236 324Z"/></g><g transform="translate(80 236) scale(0.036 -0.036)" fill="#FFFFFF"><path transform="translate(0.00 0)" d="M7 0 278 686H403L675 0H572L505 170H171L105 0ZM202 251H473L390 466Q387 475 381.0 491.0Q375 507 368.0 526.5Q361 546 354.0 566.5Q347 587 341 604H335Q328 584 319.0 558.0Q310 532 301.0 507.5Q292 483 286 466Z"/><path transform="translate(820.89 0)" d="M86 0V686H178L511 234Q516 228 524.0 216.0Q532 204 540.0 192.5Q548 181 553 172H557Q557 188 557.0 203.5Q557 219 557 234V686H650V0H563L226 460Q219 471 205.5 491.0Q192 511 183 523H178Q178 507 178.0 491.5Q178 476 178 460V0Z"/><path transform="translate(2043.67 0)" d="M7 0 278 686H403L675 0H572L505 170H171L105 0ZM202 251H473L390 466Q387 475 381.0 491.0Q375 507 368.0 526.5Q361 546 354.0 566.5Q347 587 341 604H335Q328 584 319.0 558.0Q310 532 301.0 507.5Q292 483 286 466Z"/><path transform="translate(2864.56 0)" d="M395 -12Q229 -12 142.5 75.0Q56 162 56 343Q56 461 96.0 540.0Q136 619 214.0 658.5Q292 698 404 698Q474 698 531.0 683.0Q588 668 629.5 637.5Q671 607 693.5 561.0Q716 515 716 452H619Q619 496 603.0 527.5Q587 559 557.5 579.0Q528 599 489.0 607.5Q450 616 406 616Q346 616 299.0 601.0Q252 586 220.0 554.0Q188 522 171.0 472.0Q154 422 154 353V332Q154 239 182.5 181.0Q211 123 265.0 96.5Q319 70 395 70Q472 70 522.0 91.5Q572 113 596.5 157.0Q621 201 621 268V280H379V361H717V0H645L635 87Q608 52 571.0 30.0Q534 8 489.5 -2.0Q445 -12 395 -12Z"/><path transform="translate(3799.44 0)" d="M86 0V686H614V604H181V392H570V310H181V82H620V0Z"/><path transform="translate(4615.33 0)" d="M86 0V686H178L511 234Q516 228 524.0 216.0Q532 204 540.0 192.5Q548 181 553 172H557Q557 188 557.0 203.5Q557 219 557 234V686H650V0H563L226 460Q219 471 205.5 491.0Q192 511 183 523H178Q178 507 178.0 491.5Q178 476 178 460V0Z"/><path transform="translate(5490.22 0)" d="M254 0V603H19V686H586V603H349V0Z"/><path transform="translate(6235.11 0)" d="M40 226V315H293V226Z"/><path transform="translate(6707.00 0)" d="M338 -12Q282 -12 230.5 -1.0Q179 10 139.0 34.5Q99 59 75.5 98.0Q52 137 52 194Q52 199 52.5 204.0Q53 209 53 214H149Q149 211 148.5 204.5Q148 198 148 193Q148 153 172.0 125.0Q196 97 238.5 83.5Q281 70 335 70Q359 70 385.5 73.0Q412 76 436.5 83.5Q461 91 480.5 103.5Q500 116 511.5 134.5Q523 153 523 180Q523 214 503.5 236.5Q484 259 452.0 273.5Q420 288 379.5 299.5Q339 311 296.0 322.0Q253 333 212.5 347.5Q172 362 140.0 383.5Q108 405 88.5 437.0Q69 469 69 515Q69 558 86.5 592.0Q104 626 138.5 649.5Q173 673 224.0 685.5Q275 698 341 698Q395 698 441.5 686.5Q488 675 523.5 651.5Q559 628 579.0 592.0Q599 556 599 505V493H505V508Q505 542 484.0 566.0Q463 590 426.5 603.0Q390 616 344 616Q284 616 244.0 604.5Q204 593 184.5 571.5Q165 550 165 523Q165 492 184.5 471.0Q204 450 236.0 436.5Q268 423 309.0 412.0Q350 401 392.5 389.5Q435 378 475.5 363.5Q516 349 548.5 327.5Q581 306 600.0 273.5Q619 241 619 194Q619 121 583.0 75.5Q547 30 484.0 9.0Q421 -12 338 -12Z"/><path transform="translate(7518.89 0)" d="M86 0V686H181V0Z"/><path transform="translate(7924.78 0)" d="M86 0V686H233L389 241Q395 223 401.5 201.5Q408 180 413.5 161.0Q419 142 422 128H429Q432 143 437.0 162.5Q442 182 448.0 203.0Q454 224 459 241L615 686H761V0H666V402Q666 433 667.0 469.5Q668 506 669.0 536.5Q670 567 670 580H662Q659 567 652.0 543.5Q645 520 637.5 494.5Q630 469 624 449L463 0H381L220 449Q214 466 207.5 488.5Q201 511 194.5 535.0Q188 559 182 580H175Q176 558 176.5 525.5Q177 493 177.5 460.5Q178 428 178 402V0Z"/><path transform="translate(8910.67 0)" d="M364 -12Q277 -12 214.0 16.0Q151 44 117.5 104.5Q84 165 84 260V686H179V250Q179 160 227.5 115.0Q276 70 364 70Q453 70 503.0 115.0Q553 160 553 250V686H647V260Q647 165 613.0 104.5Q579 44 515.5 16.0Q452 -12 364 -12Z"/><path transform="translate(9780.56 0)" d="M86 0V686H181V83H522V0Z"/><path transform="translate(10455.44 0)" d="M7 0 278 686H403L675 0H572L505 170H171L105 0ZM202 251H473L390 466Q387 475 381.0 491.0Q375 507 368.0 526.5Q361 546 354.0 566.5Q347 587 341 604H335Q328 584 319.0 558.0Q310 532 301.0 507.5Q292 483 286 466Z"/><path transform="translate(11276.33 0)" d="M254 0V603H19V686H586V603H349V0Z"/><path transform="translate(12021.22 0)" d="M86 0V686H181V0Z"/><path transform="translate(12427.11 0)" d="M394 -12Q287 -12 210.5 27.0Q134 66 92.5 145.0Q51 224 51 343Q51 463 92.5 541.5Q134 620 210.5 659.0Q287 698 394 698Q501 698 577.5 659.0Q654 620 695.5 541.5Q737 463 737 343Q737 224 695.5 145.0Q654 66 577.5 27.0Q501 -12 394 -12ZM394 70Q450 70 495.5 85.0Q541 100 572.5 132.5Q604 165 621.0 214.5Q638 264 638 332V353Q638 422 621.0 471.5Q604 521 572.5 553.5Q541 586 495.5 601.0Q450 616 394 616Q337 616 292.0 601.0Q247 586 215.0 553.5Q183 521 166.5 471.5Q150 422 150 353V332Q150 264 166.5 214.5Q183 165 215.0 132.5Q247 100 292.0 85.0Q337 70 394 70Z"/><path transform="translate(13354.00 0)" d="M86 0V686H178L511 234Q516 228 524.0 216.0Q532 204 540.0 192.5Q548 181 553 172H557Q557 188 557.0 203.5Q557 219 557 234V686H650V0H563L226 460Q219 471 205.5 491.0Q192 511 183 523H178Q178 507 178.0 491.5Q178 476 178 460V0Z"/><path transform="translate(14576.78 0)" d="M86 0V686H181V323L530 686H648L387 412L657 0H544L321 344L181 212V0Z"/><path transform="translate(15377.67 0)" d="M86 0V686H614V604H181V392H570V310H181V82H620V0Z"/><path transform="translate(16193.56 0)" d="M86 0V686H447Q517 686 563.5 660.5Q610 635 633.0 589.5Q656 544 656 485Q656 414 624.0 363.0Q592 312 536 290L680 0H576L442 273H181V0ZM181 354H438Q495 354 527.5 389.0Q560 424 560 485Q560 523 546.0 549.0Q532 575 505.0 589.5Q478 604 438 604H181Z"/><path transform="translate(17059.44 0)" d="M86 0V686H178L511 234Q516 228 524.0 216.0Q532 204 540.0 192.5Q548 181 553 172H557Q557 188 557.0 203.5Q557 219 557 234V686H650V0H563L226 460Q219 471 205.5 491.0Q192 511 183 523H178Q178 507 178.0 491.5Q178 476 178 460V0Z"/><path transform="translate(17934.33 0)" d="M86 0V686H614V604H181V392H570V310H181V82H620V0Z"/><path transform="translate(18750.22 0)" d="M86 0V686H181V83H522V0Z"/></g></g>
</svg>
