<?xml version="1.0" encoding="utf-8"?>
<svg width="512" height="512" viewBox="0 0 512 512" fill="none" xmlns="http://www.w3.org/2000/svg">
  <rect width="512" height="512" fill="#FFFFFF" fill-opacity="0"/>
  <defs><clipPath id="sl0"><rect x="-70" y="110.0" width="660" height="37.3"/></clipPath><clipPath id="sl1"><rect x="-70" y="146.5" width="660" height="37.3"/></clipPath><clipPath id="sl2"><rect x="-70" y="183.0" width="660" height="37.3"/></clipPath><clipPath id="sl3"><rect x="-70" y="219.5" width="660" height="37.3"/></clipPath><clipPath id="sl4"><rect x="-70" y="256.0" width="660" height="37.3"/></clipPath><clipPath id="sl5"><rect x="-70" y="292.5" width="660" height="37.3"/></clipPath><clipPath id="sl6"><rect x="-70" y="329.0" width="660" height="37.3"/></clipPath><clipPath id="sl7"><rect x="-70" y="365.5" width="660" height="37.3"/></clipPath></defs><path d="M206.00 164.00A92 92 0 0 1 249.19 337.23" stroke="#e3f4ec" stroke-width="40" fill="none" stroke-linecap="round"/><path d="M285.67 302.00A92 92 0 0 1 114.06 252.79" stroke="#e3f4ec" stroke-width="40" fill="none" stroke-linecap="round"/><path d="M126.33 302.00A92 92 0 0 1 254.75 177.98" stroke="#e3f4ec" stroke-width="40" fill="none" stroke-linecap="round"/><path d="M224.00 164.00A92 92 0 0 1 267.19 337.23" stroke="#cdedda" stroke-width="40" fill="none" stroke-linecap="round"/><path d="M303.67 302.00A92 92 0 0 1 132.06 252.79" stroke="#cdedda" stroke-width="40" fill="none" stroke-linecap="round"/><path d="M144.33 302.00A92 92 0 0 1 272.75 177.98" stroke="#cdedda" stroke-width="40" fill="none" stroke-linecap="round"/><path d="M242.00 164.00A92 92 0 0 1 285.19 337.23" stroke="#a9e2c4" stroke-width="40" fill="none" stroke-linecap="round"/><path d="M321.67 302.00A92 92 0 0 1 150.06 252.79" stroke="#a9e2c4" stroke-width="40" fill="none" stroke-linecap="round"/><path d="M162.33 302.00A92 92 0 0 1 290.75 177.98" stroke="#a9e2c4" stroke-width="40" fill="none" stroke-linecap="round"/><path d="M256.00 164.00A92 92 0 0 1 299.19 337.23" stroke="#7fd3a8" stroke-width="40" fill="none" stroke-linecap="round"/><path d="M335.67 302.00A92 92 0 0 1 164.06 252.79" stroke="#7fd3a8" stroke-width="40" fill="none" stroke-linecap="round"/><path d="M176.33 302.00A92 92 0 0 1 304.75 177.98" stroke="#7fd3a8" stroke-width="40" fill="none" stroke-linecap="round"/><g clip-path="url(#sl0)"><path d="M304.00 164.00A92 92 0 0 1 347.19 337.23" stroke="#0D0D0D" stroke-width="40" fill="none" stroke-linecap="round"/><path d="M383.67 302.00A92 92 0 0 1 212.06 252.79" stroke="#0D0D0D" stroke-width="40" fill="none" stroke-linecap="round"/><path d="M224.33 302.00A92 92 0 0 1 352.75 177.98" stroke="#3DD68C" stroke-width="40" fill="none" stroke-linecap="round"/></g><g clip-path="url(#sl1)"><path d="M242.00 164.00A92 92 0 0 1 285.19 337.23" stroke="#0D0D0D" stroke-width="40" fill="none" stroke-linecap="round"/><path d="M321.67 302.00A92 92 0 0 1 150.06 252.79" stroke="#0D0D0D" stroke-width="40" fill="none" stroke-linecap="round"/><path d="M162.33 302.00A92 92 0 0 1 290.75 177.98" stroke="#3DD68C" stroke-width="40" fill="none" stroke-linecap="round"/></g><g clip-path="url(#sl2)"><path d="M290.00 164.00A92 92 0 0 1 333.19 337.23" stroke="#0D0D0D" stroke-width="40" fill="none" stroke-linecap="round"/><path d="M369.67 302.00A92 92 0 0 1 198.06 252.79" stroke="#0D0D0D" stroke-width="40" fill="none" stroke-linecap="round"/><path d="M210.33 302.00A92 92 0 0 1 338.75 177.98" stroke="#3DD68C" stroke-width="40" fill="none" stroke-linecap="round"/></g><g clip-path="url(#sl3)"><path d="M232.00 164.00A92 92 0 0 1 275.19 337.23" stroke="#0D0D0D" stroke-width="40" fill="none" stroke-linecap="round"/><path d="M311.67 302.00A92 92 0 0 1 140.06 252.79" stroke="#0D0D0D" stroke-width="40" fill="none" stroke-linecap="round"/><path d="M152.33 302.00A92 92 0 0 1 280.75 177.98" stroke="#3DD68C" stroke-width="40" fill="none" stroke-linecap="round"/></g><g clip-path="url(#sl4)"><path d="M294.00 164.00A92 92 0 0 1 337.19 337.23" stroke="#0D0D0D" stroke-width="40" fill="none" stroke-linecap="round"/><path d="M373.67 302.00A92 92 0 0 1 202.06 252.79" stroke="#0D0D0D" stroke-width="40" fill="none" stroke-linecap="round"/><path d="M214.33 302.00A92 92 0 0 1 342.75 177.98" stroke="#3DD68C" stroke-width="40" fill="none" stroke-linecap="round"/></g><g clip-path="url(#sl5)"><path d="M256.00 164.00A92 92 0 0 1 299.19 337.23" stroke="#0D0D0D" stroke-width="40" fill="none" stroke-linecap="round"/><path d="M335.67 302.00A92 92 0 0 1 164.06 252.79" stroke="#0D0D0D" stroke-width="40" fill="none" stroke-linecap="round"/><path d="M176.33 302.00A92 92 0 0 1 304.75 177.98" stroke="#3DD68C" stroke-width="40" fill="none" stroke-linecap="round"/></g><g clip-path="url(#sl6)"><path d="M300.00 164.00A92 92 0 0 1 343.19 337.23" stroke="#0D0D0D" stroke-width="40" fill="none" stroke-linecap="round"/><path d="M379.67 302.00A92 92 0 0 1 208.06 252.79" stroke="#0D0D0D" stroke-width="40" fill="none" stroke-linecap="round"/><path d="M220.33 302.00A92 92 0 0 1 348.75 177.98" stroke="#3DD68C" stroke-width="40" fill="none" stroke-linecap="round"/></g><g clip-path="url(#sl7)"><path d="M248.00 164.00A92 92 0 0 1 291.19 337.23" stroke="#0D0D0D" stroke-width="40" fill="none" stroke-linecap="round"/><path d="M327.67 302.00A92 92 0 0 1 156.06 252.79" stroke="#0D0D0D" stroke-width="40" fill="none" stroke-linecap="round"/><path d="M168.33 302.00A92 92 0 0 1 296.75 177.98" stroke="#3DD68C" stroke-width="40" fill="none" stroke-linecap="round"/></g>
</svg>
