<?xml version="1.0" encoding="utf-8"?>
<svg width="1100" height="512" viewBox="0 0 1100 512" fill="none" xmlns="http://www.w3.org/2000/svg">
  <g>
    <rect width="1100" height="512" fill="#0D0D0D" fill-rule="evenodd" fill-opacity="0" />
    <g>
      <g>
        <rect width="512" height="512" fill="#0D0D0D" fill-rule="evenodd" />
        <g transform="translate(75 137)">
          <path d="M59.7982 0L138.798 0L79 239L0 239L59.7982 0Z" fill="#FFFFFF" fill-rule="evenodd" />
          <path d="M59.7982 0L138.798 0L79 239L0 239L59.7982 0Z" fill="#FFFFFF" fill-rule="evenodd" transform="translate(104 0)" />
          <path d="M59.7982 0L138.798 0L79 239L0 239L59.7982 0Z" fill="#42B4FF" fill-rule="evenodd" transform="translate(224 0)" />
        </g>
      </g>
      <g transform="translate(512 107)">
        <g transform="translate(78.5 49)">
          <g fill="#42B4FF">
            <path d="M10.656 27.36L90.72 27.36L90.72 51.12L42.48 51.12L42.48 68.112L83.952 68.112L83.952 90.864L42.48 90.864L42.48 126.432L10.656 126.432L10.656 27.36ZM106.848 126.432L106.848 22.032L135.504 22.032L135.504 126.432L106.848 126.432ZM208.944 126.432L207.072 114.912Q202.608 121.104 195.336 124.632Q188.064 128.16 180 128.16Q166.752 128.16 160.128 120.816Q153.504 113.472 153.504 99.648L153.504 50.4L182.16 50.4L182.16 96.192Q182.16 101.088 184.68 104.04Q187.2 106.992 191.808 106.992Q197.136 106.992 200.448 103.536Q203.76 100.08 203.76 95.04L203.76 50.4L232.416 50.4L232.416 126.432L208.944 126.432Z" />
            <path d="M336.528 126.432L303.12 126.432L288.72 102.528L288.144 102.528L273.6 126.432L241.776 126.432L271.008 86.112L244.656 50.4L278.352 50.4L290.448 70.56L291.024 70.56L303.12 50.4L334.8 50.4L308.016 86.832L336.528 126.432Z" />
          </g>
          <path d="M4.24432 34.875L0.920455 34.875L10.5341 8.69318L13.8068 8.69318L23.4205 34.875L20.0966 34.875L17.4631 27.4602L6.87784 27.4602L4.24432 34.875ZM7.875 24.6477L16.4659 24.6477L12.2727 12.8352L12.0682 12.8352L7.875 24.6477ZM35.5909 34.875L27.5114 34.875L27.5114 8.69318L35.9489 8.69318Q39.7585 8.69318 42.4688 10.2592Q45.179 11.8253 46.6236 14.7464Q48.0682 17.6676 48.0682 21.733Q48.0682 25.8239 46.6108 28.7706Q45.1534 31.7173 42.3665 33.2962Q39.5795 34.875 35.5909 34.875ZM30.6818 32.0625L35.3864 32.0625Q40.2571 32.0625 42.6285 29.2947Q45 26.527 45 21.733Q45 16.9773 42.6733 14.2415Q40.3466 11.5057 35.7443 11.5057L30.6818 11.5057L30.6818 32.0625ZM53.233 34.875L49.9091 34.875L59.5227 8.69318L62.7955 8.69318L72.4091 34.875L69.0852 34.875L66.4517 27.4602L55.8665 27.4602L53.233 34.875ZM56.8636 24.6477L65.4545 24.6477L61.2614 12.8352L61.0568 12.8352L56.8636 24.6477ZM76.5 34.875L76.5 8.69318L85.3466 8.69318Q88.4276 8.69318 90.3899 9.799Q92.3523 10.9048 93.2983 12.7841Q94.2443 14.6634 94.2443 16.9773Q94.2443 19.2912 93.3047 21.1832Q92.3651 23.0753 90.4091 24.1939Q88.4531 25.3125 85.3977 25.3125L79.6705 25.3125L79.6705 34.875L76.5 34.875ZM79.6705 22.5L85.2955 22.5Q88.4531 22.5 89.7891 20.9148Q91.125 19.3295 91.125 16.9773Q91.125 14.6122 89.7827 13.0589Q88.4403 11.5057 85.2443 11.5057L79.6705 11.5057L79.6705 22.5ZM97.9261 11.5057L97.9261 8.69318L117.563 8.69318L117.563 11.5057L109.33 11.5057L109.33 34.875L106.159 34.875L106.159 11.5057L97.9261 11.5057ZM125.642 8.69318L125.642 34.875L122.472 34.875L122.472 8.69318L125.642 8.69318ZM133.057 8.69318L140.83 30.733L141.136 30.733L148.909 8.69318L152.233 8.69318L142.619 34.875L139.347 34.875L129.733 8.69318L133.057 8.69318ZM156.324 34.875L156.324 8.69318L172.125 8.69318L172.125 11.5057L159.494 11.5057L159.494 20.3523L171.307 20.3523L171.307 23.1648L159.494 23.1648L159.494 32.0625L172.33 32.0625L172.33 34.875L156.324 34.875ZM187.977 34.875L187.977 8.69318L197.131 8.69318Q199.866 8.69318 201.643 9.63281Q203.42 10.5724 204.29 12.1513Q205.159 13.7301 205.159 15.6477Q205.159 17.3352 204.565 18.4347Q203.97 19.5341 203.005 20.1733Q202.04 20.8125 200.915 21.1193L200.915 21.375Q202.116 21.4517 203.331 22.2188Q204.545 22.9858 205.364 24.4176Q206.182 25.8494 206.182 27.9205Q206.182 29.8892 205.287 31.4616Q204.392 33.0341 202.462 33.9545Q200.531 34.875 197.438 34.875L187.977 34.875ZM191.148 32.0625L197.438 32.0625Q200.544 32.0625 201.854 30.8544Q203.165 29.6463 203.165 27.9205Q203.165 26.5909 202.487 25.4595Q201.81 24.3281 200.557 23.6442Q199.304 22.9602 197.591 22.9602L191.148 22.9602L191.148 32.0625ZM191.148 20.1989L197.028 20.1989Q199.176 20.1989 200.659 18.9588Q202.142 17.7188 202.142 15.6477Q202.142 13.9219 200.94 12.7138Q199.739 11.5057 197.131 11.5057L191.148 11.5057L191.148 20.1989ZM233.489 21.7841Q233.489 25.9261 231.993 28.9432Q230.497 31.9602 227.889 33.5966Q225.281 35.233 221.932 35.233Q218.582 35.233 215.974 33.5966Q213.366 31.9602 211.871 28.9432Q210.375 25.9261 210.375 21.7841Q210.375 17.642 211.871 14.625Q213.366 11.608 215.974 9.97159Q218.582 8.33523 221.932 8.33523Q225.281 8.33523 227.889 9.97159Q230.497 11.608 231.993 14.625Q233.489 17.642 233.489 21.7841ZM230.42 21.7841Q230.42 18.3835 229.289 16.044Q228.158 13.7045 226.234 12.5028Q224.31 11.3011 221.932 11.3011Q219.554 11.3011 217.63 12.5028Q215.706 13.7045 214.575 16.044Q213.443 18.3835 213.443 21.7841Q213.443 25.1847 214.575 27.5241Q215.706 29.8636 217.63 31.0653Q219.554 32.267 221.932 32.267Q224.31 32.267 226.234 31.0653Q228.158 29.8636 229.289 27.5241Q230.42 25.1847 230.42 21.7841ZM260.898 21.7841Q260.898 25.9261 259.402 28.9432Q257.906 31.9602 255.298 33.5966Q252.69 35.233 249.341 35.233Q245.991 35.233 243.384 33.5966Q240.776 31.9602 239.28 28.9432Q237.784 25.9261 237.784 21.7841Q237.784 17.642 239.28 14.625Q240.776 11.608 243.384 9.97159Q245.991 8.33523 249.341 8.33523Q252.69 8.33523 255.298 9.97159Q257.906 11.608 259.402 14.625Q260.898 17.642 260.898 21.7841ZM257.83 21.7841Q257.83 18.3835 256.698 16.044Q255.567 13.7045 253.643 12.5028Q251.719 11.3011 249.341 11.3011Q246.963 11.3011 245.039 12.5028Q243.115 13.7045 241.984 16.044Q240.852 18.3835 240.852 21.7841Q240.852 25.1847 241.984 27.5241Q243.115 29.8636 245.039 31.0653Q246.963 32.267 249.341 32.267Q251.719 32.267 253.643 31.0653Q255.567 29.8636 256.698 27.5241Q257.83 25.1847 257.83 21.7841ZM266.216 34.875L266.216 8.69318L269.386 8.69318L269.386 21.6818L269.693 21.6818L281.455 8.69318L285.597 8.69318L274.602 20.5057L285.597 34.875L281.761 34.875L272.659 22.7045L269.386 26.3864L269.386 34.875L266.216 34.875ZM299.813 34.875L299.813 8.69318L315.511 8.69318L315.511 11.5057L302.983 11.5057L302.983 20.3523L314.335 20.3523L314.335 23.1648L302.983 23.1648L302.983 34.875L299.813 34.875ZM343.023 21.7841Q343.023 25.9261 341.527 28.9432Q340.031 31.9602 337.423 33.5966Q334.815 35.233 331.466 35.233Q328.116 35.233 325.509 33.5966Q322.901 31.9602 321.405 28.9432Q319.909 25.9261 319.909 21.7841Q319.909 17.642 321.405 14.625Q322.901 11.608 325.509 9.97159Q328.116 8.33523 331.466 8.33523Q334.815 8.33523 337.423 9.97159Q340.031 11.608 341.527 14.625Q343.023 17.642 343.023 21.7841ZM339.955 21.7841Q339.955 18.3835 338.823 16.044Q337.692 13.7045 335.768 12.5028Q333.844 11.3011 331.466 11.3011Q329.088 11.3011 327.164 12.5028Q325.24 13.7045 324.109 16.044Q322.977 18.3835 322.977 21.7841Q322.977 25.1847 324.109 27.5241Q325.24 29.8636 327.164 31.0653Q329.088 32.267 331.466 32.267Q333.844 32.267 335.768 31.0653Q337.692 29.8636 338.823 27.5241Q339.955 25.1847 339.955 21.7841ZM348.341 34.875L348.341 8.69318L357.188 8.69318Q360.256 8.69318 362.224 9.73508Q364.193 10.777 365.139 12.5923Q366.085 14.4077 366.085 16.7216Q366.085 19.3295 364.89 21.2663Q363.695 23.2031 361.189 24.0597L367.108 34.875L363.426 34.875L357.903 24.6349Q357.584 24.6477 357.239 24.6477L351.511 24.6477L351.511 34.875L348.341 34.875ZM351.511 21.7841L357.136 21.7841Q360.281 21.7841 361.624 20.429Q362.966 19.0739 362.966 16.7216Q362.966 14.3565 361.617 12.9311Q360.268 11.5057 357.085 11.5057L351.511 11.5057L351.511 21.7841ZM371.352 8.69318L375.136 8.69318L384.034 30.4261L384.341 30.4261L393.239 8.69318L397.023 8.69318L397.023 34.875L394.057 34.875L394.057 14.983L393.801 14.983L385.619 34.875L382.756 34.875L374.574 14.983L374.318 14.983L374.318 34.875L371.352 34.875L371.352 8.69318ZM404.438 34.875L401.114 34.875L410.727 8.69318L414 8.69318L423.614 34.875L420.29 34.875L417.656 27.4602L407.071 27.4602L404.438 34.875ZM408.068 24.6477L416.659 24.6477L412.466 12.8352L412.261 12.8352L408.068 24.6477ZM423.205 11.5057L423.205 8.69318L442.841 8.69318L442.841 11.5057L434.608 11.5057L434.608 34.875L431.438 34.875L431.438 11.5057L423.205 11.5057Z" fill="#FFFFFF" transform="translate(0 157)" />
        </g>
        <line x1="0" y1="0" x2="0" y2="298" fill="none" stroke-width="1" stroke="#BDBDBD" stroke-linecap="square" />
      </g>
    </g>
  </g>
</svg>