<?xml version="1.0" encoding="utf-8"?>
<svg width="1370" height="512" viewBox="0 0 1370 512" fill="none" xmlns="http://www.w3.org/2000/svg">
  <rect width="1370" height="512" fill="#0D0D0D" fill-opacity="0"/>
  <g transform="translate(0 -12)"><path d="M135 392 Q256 368 388 392 L388 410 Q256 432 135 410 Z" fill="#5BD08A" stroke="#FFFFFF" stroke-width="8" stroke-linejoin="round"/><rect x="158" y="300" width="82" height="84" rx="12" fill="#34C0C0" stroke="#FFFFFF" stroke-width="8"/><path d="M150 300 L199 256 L248 300 Z" fill="#FF6B4A" stroke="#FFFFFF" stroke-width="8" stroke-linejoin="round"/><circle cx="199" cy="344" r="12" fill="#FFFFFF"/><rect x="230" y="202" width="96" height="182" rx="12" fill="#FFE3CC" stroke="#FFFFFF" stroke-width="8"/><path d="M218 202 L278 150 L338 202 Z" fill="#FF6B4A" stroke="#FFFFFF" stroke-width="8" stroke-linejoin="round"/><rect x="245" y="237" width="22" height="22" rx="5" fill="#34C0C0" stroke="#FFFFFF" stroke-width="8"/><rect x="245" y="285" width="22" height="22" rx="5" fill="#34C0C0" stroke="#FFFFFF" stroke-width="8"/><rect x="289" y="237" width="22" height="22" rx="5" fill="#34C0C0" stroke="#FFFFFF" stroke-width="8"/><rect x="289" y="285" width="22" height="22" rx="5" fill="#34C0C0" stroke="#FFFFFF" stroke-width="8"/><line x1="278" y1="150" x2="278" y2="120" stroke="#FFFFFF" stroke-width="8" stroke-linecap="round"/><path d="M278 122 L310 131 L278 147 Z" fill="#FFCB45" stroke="#FFFFFF" stroke-width="8" stroke-linejoin="round"/><rect x="322" y="270" width="82" height="114" rx="12" fill="#FFCB45" stroke="#FFFFFF" stroke-width="8"/><path d="M314 270 L363 228 L412 270 Z" fill="#34C0C0" stroke="#FFFFFF" stroke-width="8" stroke-linejoin="round"/><circle cx="363" cy="318" r="12" fill="#FFFFFF"/><circle cx="120" cy="158" r="30" fill="#FFCB45"/><defs><clipPath id="coin"><circle cx="396" cy="392" r="56"/></clipPath></defs><circle cx="396" cy="392" r="56" fill="#0D0D0D"/><g clip-path="url(#coin)"><g transform="translate(278.2 274.2) scale(0.46)"><defs><clipPath id="bd0"><rect x="-70" y="110.0" width="660" height="37.3"/></clipPath><clipPath id="bd1"><rect x="-70" y="146.5" width="660" height="37.3"/></clipPath><clipPath id="bd2"><rect x="-70" y="183.0" width="660" height="37.3"/></clipPath><clipPath id="bd3"><rect x="-70" y="219.5" width="660" height="37.3"/></clipPath><clipPath id="bd4"><rect x="-70" y="256.0" width="660" height="37.3"/></clipPath><clipPath id="bd5"><rect x="-70" y="292.5" width="660" height="37.3"/></clipPath><clipPath id="bd6"><rect x="-70" y="329.0" width="660" height="37.3"/></clipPath><clipPath id="bd7"><rect x="-70" y="365.5" width="660" height="37.3"/></clipPath></defs><path d="M192.00 164.00A92 92 0 0 1 235.19 337.23" stroke="#142219" stroke-width="40" fill="none" stroke-linecap="round"/><path d="M271.67 302.00A92 92 0 0 1 100.06 252.79" stroke="#142219" stroke-width="40" fill="none" stroke-linecap="round"/><path d="M112.33 302.00A92 92 0 0 1 240.75 177.98" stroke="#142219" stroke-width="40" fill="none" stroke-linecap="round"/><path d="M210.00 164.00A92 92 0 0 1 253.19 337.23" stroke="#18301f" stroke-width="40" fill="none" stroke-linecap="round"/><path d="M289.67 302.00A92 92 0 0 1 118.06 252.79" stroke="#18301f" stroke-width="40" fill="none" stroke-linecap="round"/><path d="M130.33 302.00A92 92 0 0 1 258.75 177.98" stroke="#18301f" stroke-width="40" fill="none" stroke-linecap="round"/><path d="M228.00 164.00A92 92 0 0 1 271.19 337.23" stroke="#1d3a2c" stroke-width="40" fill="none" stroke-linecap="round"/><path d="M307.67 302.00A92 92 0 0 1 136.06 252.79" stroke="#1d3a2c" stroke-width="40" fill="none" stroke-linecap="round"/><path d="M148.33 302.00A92 92 0 0 1 276.75 177.98" stroke="#1d3a2c" stroke-width="40" fill="none" stroke-linecap="round"/><path d="M242.00 164.00A92 92 0 0 1 285.19 337.23" stroke="#27543f" stroke-width="40" fill="none" stroke-linecap="round"/><path d="M321.67 302.00A92 92 0 0 1 150.06 252.79" stroke="#27543f" stroke-width="40" fill="none" stroke-linecap="round"/><path d="M162.33 302.00A92 92 0 0 1 290.75 177.98" stroke="#27543f" stroke-width="40" fill="none" stroke-linecap="round"/><g clip-path="url(#bd0)"><path d="M290.00 164.00A92 92 0 0 1 333.19 337.23" stroke="#FFFFFF" stroke-width="40" fill="none" stroke-linecap="round"/><path d="M369.67 302.00A92 92 0 0 1 198.06 252.79" stroke="#FFFFFF" stroke-width="40" fill="none" stroke-linecap="round"/><path d="M210.33 302.00A92 92 0 0 1 338.75 177.98" stroke="#3DD68C" stroke-width="40" fill="none" stroke-linecap="round"/></g><g clip-path="url(#bd1)"><path d="M228.00 164.00A92 92 0 0 1 271.19 337.23" stroke="#FFFFFF" stroke-width="40" fill="none" stroke-linecap="round"/><path d="M307.67 302.00A92 92 0 0 1 136.06 252.79" stroke="#FFFFFF" stroke-width="40" fill="none" stroke-linecap="round"/><path d="M148.33 302.00A92 92 0 0 1 276.75 177.98" stroke="#3DD68C" stroke-width="40" fill="none" stroke-linecap="round"/></g><g clip-path="url(#bd2)"><path d="M276.00 164.00A92 92 0 0 1 319.19 337.23" stroke="#FFFFFF" stroke-width="40" fill="none" stroke-linecap="round"/><path d="M355.67 302.00A92 92 0 0 1 184.06 252.79" stroke="#FFFFFF" stroke-width="40" fill="none" stroke-linecap="round"/><path d="M196.33 302.00A92 92 0 0 1 324.75 177.98" stroke="#3DD68C" stroke-width="40" fill="none" stroke-linecap="round"/></g><g clip-path="url(#bd3)"><path d="M218.00 164.00A92 92 0 0 1 261.19 337.23" stroke="#FFFFFF" stroke-width="40" fill="none" stroke-linecap="round"/><path d="M297.67 302.00A92 92 0 0 1 126.06 252.79" stroke="#FFFFFF" stroke-width="40" fill="none" stroke-linecap="round"/><path d="M138.33 302.00A92 92 0 0 1 266.75 177.98" stroke="#3DD68C" stroke-width="40" fill="none" stroke-linecap="round"/></g><g clip-path="url(#bd4)"><path d="M280.00 164.00A92 92 0 0 1 323.19 337.23" stroke="#FFFFFF" stroke-width="40" fill="none" stroke-linecap="round"/><path d="M359.67 302.00A92 92 0 0 1 188.06 252.79" stroke="#FFFFFF" stroke-width="40" fill="none" stroke-linecap="round"/><path d="M200.33 302.00A92 92 0 0 1 328.75 177.98" stroke="#3DD68C" stroke-width="40" fill="none" stroke-linecap="round"/></g><g clip-path="url(#bd5)"><path d="M242.00 164.00A92 92 0 0 1 285.19 337.23" stroke="#FFFFFF" stroke-width="40" fill="none" stroke-linecap="round"/><path d="M321.67 302.00A92 92 0 0 1 150.06 252.79" stroke="#FFFFFF" stroke-width="40" fill="none" stroke-linecap="round"/><path d="M162.33 302.00A92 92 0 0 1 290.75 177.98" stroke="#3DD68C" stroke-width="40" fill="none" stroke-linecap="round"/></g><g clip-path="url(#bd6)"><path d="M286.00 164.00A92 92 0 0 1 329.19 337.23" stroke="#FFFFFF" stroke-width="40" fill="none" stroke-linecap="round"/><path d="M365.67 302.00A92 92 0 0 1 194.06 252.79" stroke="#FFFFFF" stroke-width="40" fill="none" stroke-linecap="round"/><path d="M206.33 302.00A92 92 0 0 1 334.75 177.98" stroke="#3DD68C" stroke-width="40" fill="none" stroke-linecap="round"/></g><g clip-path="url(#bd7)"><path d="M234.00 164.00A92 92 0 0 1 277.19 337.23" stroke="#FFFFFF" stroke-width="40" fill="none" stroke-linecap="round"/><path d="M313.67 302.00A92 92 0 0 1 142.06 252.79" stroke="#FFFFFF" stroke-width="40" fill="none" stroke-linecap="round"/><path d="M154.33 302.00A92 92 0 0 1 282.75 177.98" stroke="#3DD68C" stroke-width="40" fill="none" stroke-linecap="round"/></g></g></g><circle cx="396" cy="392" r="56" fill="none" stroke="#FFFFFF" stroke-width="5"/></g>
  <g transform="translate(512 107)"><line x1="0" y1="0" x2="0" y2="298" stroke="#BDBDBD" stroke-width="1"/><g transform="translate(78.5 175) scale(0.144 -0.144)" fill="#FFFFFF"><path transform="translate(0.00 0)" d="M624 315H431Q431 405 333 405Q235 405 235 292V235Q235 123 337 123Q439 123 439 215H624Q624 100 543.5 44.0Q463 -12 333 -12Q194 -12 115.0 58.0Q36 128 36 264Q36 400 115.0 470.0Q194 540 333 540Q463 540 543.5 484.5Q624 429 624 315Z"/><path transform="translate(667.00 0)" d="M67 590V725H266V590ZM67 0V528H266V0Z"/><path transform="translate(1000.00 0)" d="M412 528V393H300V192Q300 156 312.0 139.5Q324 123 356 123H412V6Q388 -2 350.0 -7.0Q312 -12 284 -12Q196 -12 148.5 20.0Q101 52 101 129V393H27V528H109L152 688H300V528Z"/><path transform="translate(1444.00 0)" d="M156 -210Q91 -210 41 -192V-73H121Q196 -73 210 0L0 528H214L315 177H322L415 528H611L423 16Q382 -95 322.5 -152.5Q263 -210 156 -210Z"/></g><g transform="translate(374.41999999999996 175) scale(0.144 -0.144)" fill="#FF6B4A"><path transform="translate(0.00 0)" d="M564 370H379Q379 399 353 411Q335 421 308 421Q236 421 236 387Q236 368 261.0 360.0Q286 352 343 343Q413 333 460.0 319.5Q507 306 542.0 271.5Q577 237 577 175Q577 74 501.5 31.0Q426 -12 304 -12Q234 -12 172.0 7.5Q110 27 71.0 68.0Q32 109 32 172H217V168Q218 134 245.5 120.5Q273 107 304 107Q387 107 387 146Q387 166 361.0 175.0Q335 184 276 194Q205 206 159.5 220.0Q114 234 80.0 267.5Q46 301 46 361Q46 458 119.5 499.0Q193 540 311 540Q417 540 490.5 498.5Q564 457 564 370Z"/><path transform="translate(611.00 0)" d="M67 590V725H266V590ZM67 0V528H266V0Z"/><path transform="translate(944.00 0)" d="M941 342V0H742V318Q742 352 725.5 372.5Q709 393 679 393Q644 393 622.0 369.0Q600 345 600 310V0H401V318Q401 352 384.5 372.5Q368 393 338 393Q303 393 281.0 369.0Q259 345 259 310V0H60V528H223L236 449Q266 491 315.5 515.5Q365 540 420 540Q539 540 580 449Q611 491 659.5 515.5Q708 540 761 540Q851 540 896.0 488.5Q941 437 941 342Z"/></g><g transform="translate(80 236) scale(0.036 -0.036)" fill="#FFFFFF"><path transform="translate(0.00 0)" d="M7 0 278 686H403L675 0H572L505 170H171L105 0ZM202 251H473L390 466Q387 475 381.0 491.0Q375 507 368.0 526.5Q361 546 354.0 566.5Q347 587 341 604H335Q328 584 319.0 558.0Q310 532 301.0 507.5Q292 483 286 466Z"/><path transform="translate(820.89 0)" d="M86 0V686H178L511 234Q516 228 524.0 216.0Q532 204 540.0 192.5Q548 181 553 172H557Q557 188 557.0 203.5Q557 219 557 234V686H650V0H563L226 460Q219 471 205.5 491.0Q192 511 183 523H178Q178 507 178.0 491.5Q178 476 178 460V0Z"/><path transform="translate(2043.67 0)" d="M86 0V686H614V604H181V392H570V310H181V82H620V0Z"/><path transform="translate(2859.56 0)" d="M86 0V686H233L389 241Q395 223 401.5 201.5Q408 180 413.5 161.0Q419 142 422 128H429Q432 143 437.0 162.5Q442 182 448.0 203.0Q454 224 459 241L615 686H761V0H666V402Q666 433 667.0 469.5Q668 506 669.0 536.5Q670 567 670 580H662Q659 567 652.0 543.5Q645 520 637.5 494.5Q630 469 624 449L463 0H381L220 449Q214 466 207.5 488.5Q201 511 194.5 535.0Q188 559 182 580H175Q176 558 176.5 525.5Q177 493 177.5 460.5Q178 428 178 402V0Z"/><path transform="translate(3845.44 0)" d="M86 0V686H614V604H181V392H570V310H181V82H620V0Z"/><path transform="translate(4661.33 0)" d="M86 0V686H447Q517 686 563.5 660.5Q610 635 633.0 589.5Q656 544 656 485Q656 414 624.0 363.0Q592 312 536 290L680 0H576L442 273H181V0ZM181 354H438Q495 354 527.5 389.0Q560 424 560 485Q560 523 546.0 549.0Q532 575 505.0 589.5Q478 604 438 604H181Z"/><path transform="translate(5527.22 0)" d="M395 -12Q229 -12 142.5 75.0Q56 162 56 343Q56 461 96.0 540.0Q136 619 214.0 658.5Q292 698 404 698Q474 698 531.0 683.0Q588 668 629.5 637.5Q671 607 693.5 561.0Q716 515 716 452H619Q619 496 603.0 527.5Q587 559 557.5 579.0Q528 599 489.0 607.5Q450 616 406 616Q346 616 299.0 601.0Q252 586 220.0 554.0Q188 522 171.0 472.0Q154 422 154 353V332Q154 239 182.5 181.0Q211 123 265.0 96.5Q319 70 395 70Q472 70 522.0 91.5Q572 113 596.5 157.0Q621 201 621 268V280H379V361H717V0H645L635 87Q608 52 571.0 30.0Q534 8 489.5 -2.0Q445 -12 395 -12Z"/><path transform="translate(6462.11 0)" d="M86 0V686H614V604H181V392H570V310H181V82H620V0Z"/><path transform="translate(7278.00 0)" d="M86 0V686H178L511 234Q516 228 524.0 216.0Q532 204 540.0 192.5Q548 181 553 172H557Q557 188 557.0 203.5Q557 219 557 234V686H650V0H563L226 460Q219 471 205.5 491.0Q192 511 183 523H178Q178 507 178.0 491.5Q178 476 178 460V0Z"/><path transform="translate(8152.89 0)" d="M254 0V603H19V686H586V603H349V0Z"/><path transform="translate(9245.67 0)" d="M379 -12Q274 -12 201.0 26.5Q128 65 89.5 143.5Q51 222 51 343Q51 522 138.0 610.0Q225 698 380 698Q468 698 536.0 669.5Q604 641 642.5 583.5Q681 526 681 439H585Q585 499 559.5 538.0Q534 577 488.0 596.5Q442 616 380 616Q308 616 256.0 588.0Q204 560 177.0 501.5Q150 443 150 351V330Q150 239 177.0 181.5Q204 124 255.5 97.0Q307 70 380 70Q444 70 490.5 89.0Q537 108 562.5 147.5Q588 187 588 247H681Q681 158 641.5 101.0Q602 44 534.0 16.0Q466 -12 379 -12Z"/><path transform="translate(10112.56 0)" d="M394 -12Q287 -12 210.5 27.0Q134 66 92.5 145.0Q51 224 51 343Q51 463 92.5 541.5Q134 620 210.5 659.0Q287 698 394 698Q501 698 577.5 659.0Q654 620 695.5 541.5Q737 463 737 343Q737 224 695.5 145.0Q654 66 577.5 27.0Q501 -12 394 -12ZM394 70Q450 70 495.5 85.0Q541 100 572.5 132.5Q604 165 621.0 214.5Q638 264 638 332V353Q638 422 621.0 471.5Q604 521 572.5 553.5Q541 586 495.5 601.0Q450 616 394 616Q337 616 292.0 601.0Q247 586 215.0 553.5Q183 521 166.5 471.5Q150 422 150 353V332Q150 264 166.5 214.5Q183 165 215.0 132.5Q247 100 292.0 85.0Q337 70 394 70Z"/><path transform="translate(11039.44 0)" d="M86 0V686H181V83H522V0Z"/><path transform="translate(11714.33 0)" d="M394 -12Q287 -12 210.5 27.0Q134 66 92.5 145.0Q51 224 51 343Q51 463 92.5 541.5Q134 620 210.5 659.0Q287 698 394 698Q501 698 577.5 659.0Q654 620 695.5 541.5Q737 463 737 343Q737 224 695.5 145.0Q654 66 577.5 27.0Q501 -12 394 -12ZM394 70Q450 70 495.5 85.0Q541 100 572.5 132.5Q604 165 621.0 214.5Q638 264 638 332V353Q638 422 621.0 471.5Q604 521 572.5 553.5Q541 586 495.5 601.0Q450 616 394 616Q337 616 292.0 601.0Q247 586 215.0 553.5Q183 521 166.5 471.5Q150 422 150 353V332Q150 264 166.5 214.5Q183 165 215.0 132.5Q247 100 292.0 85.0Q337 70 394 70Z"/><path transform="translate(12641.22 0)" d="M86 0V686H178L511 234Q516 228 524.0 216.0Q532 204 540.0 192.5Q548 181 553 172H557Q557 188 557.0 203.5Q557 219 557 234V686H650V0H563L226 460Q219 471 205.5 491.0Q192 511 183 523H178Q178 507 178.0 491.5Q178 476 178 460V0Z"/><path transform="translate(13516.11 0)" d="M280 0V285L10 686H119L328 369H333L541 686H645L376 285V0Z"/><path transform="translate(14657.89 0)" d="M86 0V686H440Q499 686 542.0 665.5Q585 645 608.5 608.0Q632 571 632 520Q632 481 618.0 448.0Q604 415 579.0 393.0Q554 371 522 360V356Q558 348 587.0 327.0Q616 306 633.5 271.5Q651 237 651 187Q651 120 623.0 79.0Q595 38 548.0 19.0Q501 0 440 0ZM181 82H439Q490 82 522.0 108.5Q554 135 554 197Q554 235 540.0 260.5Q526 286 499.0 298.5Q472 311 431 311H181ZM181 392H422Q456 392 481.0 405.5Q506 419 520.5 443.5Q535 468 535 499Q535 553 506.0 578.5Q477 604 429 604H181Z"/><path transform="translate(15494.78 0)" d="M364 -12Q277 -12 214.0 16.0Q151 44 117.5 104.5Q84 165 84 260V686H179V250Q179 160 227.5 115.0Q276 70 364 70Q453 70 503.0 115.0Q553 160 553 250V686H647V260Q647 165 613.0 104.5Q579 44 515.5 16.0Q452 -12 364 -12Z"/><path transform="translate(16364.67 0)" d="M86 0V686H181V0Z"/><path transform="translate(16770.56 0)" d="M86 0V686H181V83H522V0Z"/><path transform="translate(17445.44 0)" d="M86 0V686H342Q450 686 526.0 650.0Q602 614 642.5 538.5Q683 463 683 343Q683 225 642.5 149.0Q602 73 526.0 36.5Q450 0 342 0ZM181 82H340Q397 82 442.0 96.5Q487 111 519.0 141.0Q551 171 567.5 218.5Q584 266 584 332V352Q584 420 567.5 467.5Q551 515 519.5 545.0Q488 575 443.0 589.5Q398 604 340 604H181Z"/><path transform="translate(18318.33 0)" d="M86 0V686H614V604H181V392H570V310H181V82H620V0Z"/><path transform="translate(19134.22 0)" d="M86 0V686H447Q517 686 563.5 660.5Q610 635 633.0 589.5Q656 544 656 485Q656 414 624.0 363.0Q592 312 536 290L680 0H576L442 273H181V0ZM181 354H438Q495 354 527.5 389.0Q560 424 560 485Q560 523 546.0 549.0Q532 575 505.0 589.5Q478 604 438 604H181Z"/></g></g>
</svg>
