<?xml version="1.0" encoding="utf-8"?>
<svg width="512" height="512" viewBox="0 0 512 512" fill="none" xmlns="http://www.w3.org/2000/svg">
  <rect width="512" height="512" fill="#FFFFFF" fill-opacity="0"/>
  <g transform="translate(0 -12)"><path d="M135 392 Q256 368 388 392 L388 410 Q256 432 135 410 Z" fill="#5BD08A" stroke="#0D0D0D" stroke-width="8" stroke-linejoin="round"/><rect x="158" y="300" width="82" height="84" rx="12" fill="#34C0C0" stroke="#0D0D0D" stroke-width="8"/><path d="M150 300 L199 256 L248 300 Z" fill="#FF6B4A" stroke="#0D0D0D" stroke-width="8" stroke-linejoin="round"/><circle cx="199" cy="344" r="12" fill="#0D0D0D"/><rect x="230" y="202" width="96" height="182" rx="12" fill="#FFE3CC" stroke="#0D0D0D" stroke-width="8"/><path d="M218 202 L278 150 L338 202 Z" fill="#FF6B4A" stroke="#0D0D0D" stroke-width="8" stroke-linejoin="round"/><rect x="245" y="237" width="22" height="22" rx="5" fill="#34C0C0" stroke="#0D0D0D" stroke-width="8"/><rect x="245" y="285" width="22" height="22" rx="5" fill="#34C0C0" stroke="#0D0D0D" stroke-width="8"/><rect x="289" y="237" width="22" height="22" rx="5" fill="#34C0C0" stroke="#0D0D0D" stroke-width="8"/><rect x="289" y="285" width="22" height="22" rx="5" fill="#34C0C0" stroke="#0D0D0D" stroke-width="8"/><line x1="278" y1="150" x2="278" y2="120" stroke="#0D0D0D" stroke-width="8" stroke-linecap="round"/><path d="M278 122 L310 131 L278 147 Z" fill="#FFCB45" stroke="#0D0D0D" stroke-width="8" stroke-linejoin="round"/><rect x="322" y="270" width="82" height="114" rx="12" fill="#FFCB45" stroke="#0D0D0D" stroke-width="8"/><path d="M314 270 L363 228 L412 270 Z" fill="#34C0C0" stroke="#0D0D0D" stroke-width="8" stroke-linejoin="round"/><circle cx="363" cy="318" r="12" fill="#0D0D0D"/><circle cx="120" cy="158" r="30" fill="#FFCB45"/><defs><clipPath id="coin"><circle cx="396" cy="392" r="56"/></clipPath></defs><circle cx="396" cy="392" r="56" fill="#0D0D0D"/><g clip-path="url(#coin)"><g transform="translate(278.2 274.2) scale(0.46)"><defs><clipPath id="bd0"><rect x="-70" y="110.0" width="660" height="37.3"/></clipPath><clipPath id="bd1"><rect x="-70" y="146.5" width="660" height="37.3"/></clipPath><clipPath id="bd2"><rect x="-70" y="183.0" width="660" height="37.3"/></clipPath><clipPath id="bd3"><rect x="-70" y="219.5" width="660" height="37.3"/></clipPath><clipPath id="bd4"><rect x="-70" y="256.0" width="660" height="37.3"/></clipPath><clipPath id="bd5"><rect x="-70" y="292.5" width="660" height="37.3"/></clipPath><clipPath id="bd6"><rect x="-70" y="329.0" width="660" height="37.3"/></clipPath><clipPath id="bd7"><rect x="-70" y="365.5" width="660" height="37.3"/></clipPath></defs><path d="M192.00 164.00A92 92 0 0 1 235.19 337.23" stroke="#142219" stroke-width="40" fill="none" stroke-linecap="round"/><path d="M271.67 302.00A92 92 0 0 1 100.06 252.79" stroke="#142219" stroke-width="40" fill="none" stroke-linecap="round"/><path d="M112.33 302.00A92 92 0 0 1 240.75 177.98" stroke="#142219" stroke-width="40" fill="none" stroke-linecap="round"/><path d="M210.00 164.00A92 92 0 0 1 253.19 337.23" stroke="#18301f" stroke-width="40" fill="none" stroke-linecap="round"/><path d="M289.67 302.00A92 92 0 0 1 118.06 252.79" stroke="#18301f" stroke-width="40" fill="none" stroke-linecap="round"/><path d="M130.33 302.00A92 92 0 0 1 258.75 177.98" stroke="#18301f" stroke-width="40" fill="none" stroke-linecap="round"/><path d="M228.00 164.00A92 92 0 0 1 271.19 337.23" stroke="#1d3a2c" stroke-width="40" fill="none" stroke-linecap="round"/><path d="M307.67 302.00A92 92 0 0 1 136.06 252.79" stroke="#1d3a2c" stroke-width="40" fill="none" stroke-linecap="round"/><path d="M148.33 302.00A92 92 0 0 1 276.75 177.98" stroke="#1d3a2c" stroke-width="40" fill="none" stroke-linecap="round"/><path d="M242.00 164.00A92 92 0 0 1 285.19 337.23" stroke="#27543f" stroke-width="40" fill="none" stroke-linecap="round"/><path d="M321.67 302.00A92 92 0 0 1 150.06 252.79" stroke="#27543f" stroke-width="40" fill="none" stroke-linecap="round"/><path d="M162.33 302.00A92 92 0 0 1 290.75 177.98" stroke="#27543f" stroke-width="40" fill="none" stroke-linecap="round"/><g clip-path="url(#bd0)"><path d="M290.00 164.00A92 92 0 0 1 333.19 337.23" stroke="#FFFFFF" stroke-width="40" fill="none" stroke-linecap="round"/><path d="M369.67 302.00A92 92 0 0 1 198.06 252.79" stroke="#FFFFFF" stroke-width="40" fill="none" stroke-linecap="round"/><path d="M210.33 302.00A92 92 0 0 1 338.75 177.98" stroke="#3DD68C" stroke-width="40" fill="none" stroke-linecap="round"/></g><g clip-path="url(#bd1)"><path d="M228.00 164.00A92 92 0 0 1 271.19 337.23" stroke="#FFFFFF" stroke-width="40" fill="none" stroke-linecap="round"/><path d="M307.67 302.00A92 92 0 0 1 136.06 252.79" stroke="#FFFFFF" stroke-width="40" fill="none" stroke-linecap="round"/><path d="M148.33 302.00A92 92 0 0 1 276.75 177.98" stroke="#3DD68C" stroke-width="40" fill="none" stroke-linecap="round"/></g><g clip-path="url(#bd2)"><path d="M276.00 164.00A92 92 0 0 1 319.19 337.23" stroke="#FFFFFF" stroke-width="40" fill="none" stroke-linecap="round"/><path d="M355.67 302.00A92 92 0 0 1 184.06 252.79" stroke="#FFFFFF" stroke-width="40" fill="none" stroke-linecap="round"/><path d="M196.33 302.00A92 92 0 0 1 324.75 177.98" stroke="#3DD68C" stroke-width="40" fill="none" stroke-linecap="round"/></g><g clip-path="url(#bd3)"><path d="M218.00 164.00A92 92 0 0 1 261.19 337.23" stroke="#FFFFFF" stroke-width="40" fill="none" stroke-linecap="round"/><path d="M297.67 302.00A92 92 0 0 1 126.06 252.79" stroke="#FFFFFF" stroke-width="40" fill="none" stroke-linecap="round"/><path d="M138.33 302.00A92 92 0 0 1 266.75 177.98" stroke="#3DD68C" stroke-width="40" fill="none" stroke-linecap="round"/></g><g clip-path="url(#bd4)"><path d="M280.00 164.00A92 92 0 0 1 323.19 337.23" stroke="#FFFFFF" stroke-width="40" fill="none" stroke-linecap="round"/><path d="M359.67 302.00A92 92 0 0 1 188.06 252.79" stroke="#FFFFFF" stroke-width="40" fill="none" stroke-linecap="round"/><path d="M200.33 302.00A92 92 0 0 1 328.75 177.98" stroke="#3DD68C" stroke-width="40" fill="none" stroke-linecap="round"/></g><g clip-path="url(#bd5)"><path d="M242.00 164.00A92 92 0 0 1 285.19 337.23" stroke="#FFFFFF" stroke-width="40" fill="none" stroke-linecap="round"/><path d="M321.67 302.00A92 92 0 0 1 150.06 252.79" stroke="#FFFFFF" stroke-width="40" fill="none" stroke-linecap="round"/><path d="M162.33 302.00A92 92 0 0 1 290.75 177.98" stroke="#3DD68C" stroke-width="40" fill="none" stroke-linecap="round"/></g><g clip-path="url(#bd6)"><path d="M286.00 164.00A92 92 0 0 1 329.19 337.23" stroke="#FFFFFF" stroke-width="40" fill="none" stroke-linecap="round"/><path d="M365.67 302.00A92 92 0 0 1 194.06 252.79" stroke="#FFFFFF" stroke-width="40" fill="none" stroke-linecap="round"/><path d="M206.33 302.00A92 92 0 0 1 334.75 177.98" stroke="#3DD68C" stroke-width="40" fill="none" stroke-linecap="round"/></g><g clip-path="url(#bd7)"><path d="M234.00 164.00A92 92 0 0 1 277.19 337.23" stroke="#FFFFFF" stroke-width="40" fill="none" stroke-linecap="round"/><path d="M313.67 302.00A92 92 0 0 1 142.06 252.79" stroke="#FFFFFF" stroke-width="40" fill="none" stroke-linecap="round"/><path d="M154.33 302.00A92 92 0 0 1 282.75 177.98" stroke="#3DD68C" stroke-width="40" fill="none" stroke-linecap="round"/></g></g></g><circle cx="396" cy="392" r="56" fill="none" stroke="#FFFFFF" stroke-width="5"/></g>
</svg>
