<?xml version="1.0" encoding="utf-8"?>
<svg width="1250" height="512" viewBox="0 0 1250 512" fill="none" xmlns="http://www.w3.org/2000/svg">
  <g>
    <rect width="1250" height="512" fill="#FFFFFF00" fill-rule="evenodd" />
    <g>
      <g>
        <rect width="512" height="512" fill="#FFFFFF00" fill-rule="evenodd" />
        <g transform="translate(75 137)">
          <path d="M59.7982 0L138.798 0L79 239L0 239L59.7982 0Z" fill="#0D0D0D" fill-rule="evenodd" />
          <path d="M59.7982 0L138.798 0L79 239L0 239L59.7982 0Z" fill="#0D0D0D" fill-rule="evenodd" transform="translate(224 0)" />
          <path d="M164 0L243 0L79.5 239L0 239L164 0Z" fill="#FFCD42" fill-rule="evenodd" transform="matrix(-1 0 0 1 303 0)" />
        </g>
      </g>
      <g transform="translate(512 114)">
        <g transform="translate(78 42)">
          <g fill="#0D0D0D">
            <path d="M81.504 126.432L39.888 78.336L39.888 126.432L10.656 126.432L10.656 27.36L38.448 27.36L80.064 76.176L80.064 27.36L109.296 27.36L109.296 126.432L81.504 126.432ZM167.904 48.672Q187.92 48.672 199.368 58.824Q210.816 68.976 210.816 88.416Q210.816 107.856 199.368 118.008Q187.92 128.16 167.904 128.16Q147.888 128.16 136.512 118.08Q125.136 108 125.136 88.416Q125.136 68.832 136.512 58.752Q147.888 48.672 167.904 48.672ZM167.904 68.112Q153.792 68.112 153.792 84.384L153.792 92.592Q153.792 108.72 167.904 108.72Q182.16 108.72 182.16 92.592L182.16 84.384Q182.16 68.112 167.904 68.112ZM239.904 126.432L211.104 50.4L241.92 50.4L255.888 97.776L256.896 97.776L270.864 50.4L299.088 50.4L270 126.432L239.904 126.432ZM343.296 48.672Q364.176 48.672 375.192 58.464Q386.208 68.256 386.208 88.416L386.208 93.312L329.184 93.312Q329.184 101.52 332.856 105.696Q336.528 109.872 344.448 109.872Q351.648 109.872 355.032 106.848Q358.416 103.824 358.416 98.784L386.208 98.784Q386.208 112.608 375.696 120.384Q365.184 128.16 345.024 128.16Q323.856 128.16 312.192 118.296Q300.528 108.432 300.528 88.416Q300.528 68.832 311.904 58.752Q323.28 48.672 343.296 48.672ZM344.448 66.96Q330.912 66.96 329.328 79.776L357.264 79.776Q357.264 73.872 353.88 70.416Q350.496 66.96 344.448 66.96Z" />
            <path d="M401.04 126.432L401.04 22.032L429.696 22.032L429.696 126.432L401.04 126.432ZM448.992 41.472L448.992 22.032L477.648 22.032L477.648 41.472L448.992 41.472ZM448.992 126.432L448.992 50.4L477.648 50.4L477.648 126.432L448.992 126.432ZM535.248 48.672Q556.128 48.672 567.144 58.464Q578.16 68.256 578.16 88.416L578.16 93.312L521.136 93.312Q521.136 101.52 524.808 105.696Q528.48 109.872 536.4 109.872Q543.6 109.872 546.984 106.848Q550.368 103.824 550.368 98.784L578.16 98.784Q578.16 112.608 567.648 120.384Q557.136 128.16 536.976 128.16Q515.808 128.16 504.144 118.296Q492.48 108.432 492.48 88.416Q492.48 68.832 503.856 58.752Q515.232 48.672 535.248 48.672ZM536.4 66.96Q522.864 66.96 521.28 79.776L549.216 79.776Q549.216 73.872 545.832 70.416Q542.448 66.96 536.4 66.96Z" />
          </g>
          <path d="M3.17045 34.875L3.17045 8.69318L18.8693 8.69318L18.8693 11.5057L6.34091 11.5057L6.34091 20.3523L17.6932 20.3523L17.6932 23.1648L6.34091 23.1648L6.34091 34.875L3.17045 34.875ZM24.2898 34.875L24.2898 8.69318L27.4602 8.69318L27.4602 32.0625L39.6307 32.0625L39.6307 34.875L24.2898 34.875ZM61.7216 8.69318L64.892 8.69318L64.892 26.0284Q64.892 28.7131 63.6328 30.8161Q62.3736 32.919 60.0852 34.1271Q57.7969 35.3352 54.7159 35.3352Q51.6349 35.3352 49.3466 34.1271Q47.0582 32.919 45.799 30.8161Q44.5398 28.7131 44.5398 26.0284L44.5398 8.69318L47.7102 8.69318L47.7102 25.7727Q47.7102 28.6491 49.5767 30.5092Q51.4432 32.3693 54.7159 32.3693Q58.0014 32.3693 59.8615 30.5092Q61.7216 28.6491 61.7216 25.7727L61.7216 8.69318ZM72.767 8.69318L79.517 19.5852L79.7216 19.5852L86.4716 8.69318L90.2045 8.69318L81.9716 21.7841L90.2045 34.875L86.4716 34.875L79.7216 24.1875L79.517 24.1875L72.767 34.875L69.0341 34.875L77.4716 21.7841L69.0341 8.69318L72.767 8.69318ZM104.472 34.875L104.472 8.69318L107.642 8.69318L107.642 32.0625L119.813 32.0625L119.813 34.875L104.472 34.875ZM127.892 8.69318L127.892 34.875L124.722 34.875L124.722 8.69318L127.892 8.69318ZM134.233 34.875L134.233 8.69318L143.386 8.69318Q146.122 8.69318 147.899 9.63281Q149.676 10.5724 150.545 12.1513Q151.415 13.7301 151.415 15.6477Q151.415 17.3352 150.82 18.4347Q150.226 19.5341 149.261 20.1733Q148.295 20.8125 147.17 21.1193L147.17 21.375Q148.372 21.4517 149.587 22.2188Q150.801 22.9858 151.619 24.4176Q152.438 25.8494 152.438 27.9205Q152.438 29.8892 151.543 31.4616Q150.648 33.0341 148.717 33.9545Q146.787 34.875 143.693 34.875L134.233 34.875ZM137.403 32.0625L143.693 32.0625Q146.8 32.0625 148.11 30.8544Q149.42 29.6463 149.42 27.9205Q149.42 26.5909 148.743 25.4595Q148.065 24.3281 146.813 23.6442Q145.56 22.9602 143.847 22.9602L137.403 22.9602L137.403 32.0625ZM137.403 20.1989L143.284 20.1989Q145.432 20.1989 146.915 18.9588Q148.398 17.7188 148.398 15.6477Q148.398 13.9219 147.196 12.7138Q145.994 11.5057 143.386 11.5057L137.403 11.5057L137.403 20.1989ZM157.653 34.875L157.653 8.69318L166.5 8.69318Q169.568 8.69318 171.537 9.73508Q173.506 10.777 174.452 12.5923Q175.398 14.4077 175.398 16.7216Q175.398 19.3295 174.202 21.2663Q173.007 23.2031 170.501 24.0597L176.42 34.875L172.739 34.875L167.216 24.6349Q166.896 24.6477 166.551 24.6477L160.824 24.6477L160.824 34.875L157.653 34.875ZM160.824 21.7841L166.449 21.7841Q169.594 21.7841 170.936 20.429Q172.278 19.0739 172.278 16.7216Q172.278 14.3565 170.93 12.9311Q169.581 11.5057 166.398 11.5057L160.824 11.5057L160.824 21.7841ZM181.739 34.875L178.415 34.875L188.028 8.69318L191.301 8.69318L200.915 34.875L197.591 34.875L194.957 27.4602L184.372 27.4602L181.739 34.875ZM185.369 24.6477L193.96 24.6477L189.767 12.8352L189.563 12.8352L185.369 24.6477ZM205.006 34.875L205.006 8.69318L213.852 8.69318Q216.92 8.69318 218.889 9.73508Q220.858 10.777 221.804 12.5923Q222.75 14.4077 222.75 16.7216Q222.75 19.3295 221.555 21.2663Q220.359 23.2031 217.854 24.0597L223.773 34.875L220.091 34.875L214.568 24.6349Q214.249 24.6477 213.903 24.6477L208.176 24.6477L208.176 34.875L205.006 34.875ZM208.176 21.7841L213.801 21.7841Q216.946 21.7841 218.288 20.429Q219.631 19.0739 219.631 16.7216Q219.631 14.3565 218.282 12.9311Q216.933 11.5057 213.75 11.5057L208.176 11.5057L208.176 21.7841ZM224.898 8.69318L228.528 8.69318L235.79 20.9148L236.097 20.9148L243.358 8.69318L246.989 8.69318L237.528 24.0852L237.528 34.875L234.358 34.875L234.358 24.0852L224.898 8.69318Z" fill="#0D0D0D" transform="translate(0 157)" />
        </g>
        <line x1="0" y1="0" x2="0" y2="284.5" fill="none" stroke-width="1" stroke="#0D0D0D" stroke-linecap="square" />
      </g>
    </g>
  </g>
</svg>